<svg xmlns="http://www.w3.org/2000/svg" viewBox="0 0 256 256" role="img" aria-label="Disco Dump avatar">
  <defs>
    <linearGradient id="bg" x1="0" x2="1" y1="0" y2="1">
      <stop offset="0" stop-color="#102a44"/>
      <stop offset="1" stop-color="#070a12"/>
    </linearGradient>
  </defs>
  <rect width="256" height="256" rx="28" fill="url(#bg)"/>
  <circle cx="128" cy="128" r="103" fill="#101827" stroke="#f7d924" stroke-width="6"/>
  <circle cx="128" cy="111" r="57" fill="#dcefff" stroke="#23dff2" stroke-width="7"/>
  <path d="M128 54v114M76 111h104M89 75c27 19 52 19 78 0M89 147c27-19 52-19 78 0M104 59c-16 30-16 73 0 104M152 59c16 30 16 73 0 104" stroke="#6e7f99" stroke-width="4"/>
  <circle cx="109" cy="111" r="7" fill="#07131f"/>
  <circle cx="147" cy="111" r="7" fill="#07131f"/>
  <path d="M111 132c11 9 24 9 35 0" fill="none" stroke="#07131f" stroke-width="7" stroke-linecap="round"/>
  <path d="M77 177h102l-12 36H89Z" fill="#43505f" stroke="#97abc2" stroke-width="6"/>
  <path d="M64 176h128" stroke="#ff2e88" stroke-width="9" stroke-linecap="round"/>
  <text x="128" y="207" text-anchor="middle" fill="#f9fbff" font-family="Verdana, sans-serif" font-size="19" font-weight="900">DISCO</text>
</svg>
