<svg xmlns="http://www.w3.org/2000/svg" viewBox="0 0 256 256" role="img" aria-label="Sad Fries avatar">
  <defs>
    <linearGradient id="bg" x1="0" x2="1" y1="0" y2="1">
      <stop offset="0" stop-color="#14213d"/>
      <stop offset="1" stop-color="#05070d"/>
    </linearGradient>
  </defs>
  <rect width="256" height="256" rx="28" fill="url(#bg)"/>
  <circle cx="128" cy="128" r="103" fill="#111827" stroke="#f7d924" stroke-width="6"/>
  <g stroke="#ffdc5e" stroke-width="16" stroke-linecap="round">
    <path d="M82 72v78"/>
    <path d="M106 54v98"/>
    <path d="M132 66v83"/>
    <path d="M157 58v93"/>
    <path d="M181 80v70"/>
  </g>
  <path d="M73 129h110l-14 76H87Z" fill="#e02f4f" stroke="#ff7aa9" stroke-width="6"/>
  <path d="M93 150h70" stroke="#ffd85c" stroke-width="7" stroke-linecap="round"/>
  <circle cx="108" cy="174" r="7" fill="#090d14"/>
  <circle cx="148" cy="174" r="7" fill="#090d14"/>
  <path d="M111 196c10-10 24-10 34 0" fill="none" stroke="#090d14" stroke-width="7" stroke-linecap="round"/>
  <path d="M85 111c-12-11-24-13-36-5M174 113c12-11 25-13 38-5" fill="none" stroke="#23dff2" stroke-width="6" stroke-linecap="round"/>
</svg>
